<svg width="27" height="27" viewBox="0 0 27 27" fill="none" xmlns="http://www.w3.org/2000/svg">
<path d="M17.9134 8.96032L17.9134 8.21032L18.6634 8.21032L18.6634 8.96032L17.9134 8.96032ZM10.0469 17.8875C9.75399 18.1804 9.27911 18.1804 8.98622 17.8875C8.69333 17.5946 8.69333 17.1198 8.98622 16.8269L9.51655 17.3572L10.0469 17.8875ZM11.1959 8.96032L11.1959 8.21032H17.9134L17.9134 8.96032L17.9134 9.71032H11.1959L11.1959 8.96032ZM17.9134 8.96032L18.6634 8.96032L18.6634 15.6778L17.9134 15.6778L17.1634 15.6778L17.1634 8.96032L17.9134 8.96032ZM17.9134 8.96032L18.4438 9.49065L10.0469 17.8875L9.51655 17.3572L8.98622 16.8269L17.3831 8.42999L17.9134 8.96032Z" fill="#1E2D4D"/>
</svg>
