<svg width="19" height="19" viewBox="0 0 19 19" fill="none" xmlns="http://www.w3.org/2000/svg">
<path fill-rule="evenodd" clip-rule="evenodd" d="M9.5 16.625C13.435 16.625 16.625 13.435 16.625 9.5C16.625 5.56497 13.435 2.375 9.5 2.375C5.56497 2.375 2.375 5.56497 2.375 9.5C2.375 13.435 5.56497 16.625 9.5 16.625ZM13.4349 7.76518C13.7885 7.34091 13.7311 6.71034 13.3069 6.35678C12.8826 6.00321 12.252 6.06054 11.8984 6.48482L9.34216 9.55236C8.99544 9.96842 8.80053 10.1988 8.64491 10.3403L8.63896 10.3457L8.63255 10.3409C8.46476 10.214 8.24979 10.0022 7.86683 9.61928L7.04044 8.79289C6.64992 8.40237 6.01675 8.40237 5.62623 8.79289C5.2357 9.18342 5.2357 9.81658 5.62623 10.2071L6.45262 11.0335L6.49344 11.0743L6.49346 11.0743C6.81995 11.401 7.13403 11.7152 7.42627 11.9361C7.75364 12.1837 8.18235 12.4165 8.73176 12.3915C9.28117 12.3666 9.68706 12.096 9.99067 11.8198C10.2617 11.5733 10.5461 11.2319 10.8416 10.8771L10.8786 10.8327L13.4349 7.76518Z" fill="#3EA283"/>
</svg>
