<svg width="20" height="15" viewBox="0 0 20 15" fill="none" xmlns="http://www.w3.org/2000/svg">
<path d="M14 7.60156C14 8.15385 13.5523 8.60156 13 8.60156C12.4477 8.60156 12 8.15385 12 7.60156C12 7.04928 12.4477 6.60156 13 6.60156C13.5523 6.60156 14 7.04928 14 7.60156Z" fill="#1E2D4D" fill-opacity="0.6"/>
<path d="M1 3.60156C1 2.65875 1 2.18735 1.29289 1.89446C1.58579 1.60156 2.05719 1.60156 3 1.60156H13.9296C14.4536 1.60156 14.7156 1.60156 14.9367 1.71989C15.1578 1.83821 15.3031 2.0562 15.5937 2.49216L18.2604 6.49216C18.6189 7.02991 18.7981 7.29879 18.7981 7.60156C18.7981 7.90434 18.6189 8.17321 18.2604 8.71096L15.5937 12.711C15.3031 13.1469 15.1578 13.3649 14.9367 13.4832C14.7156 13.6016 14.4536 13.6016 13.9296 13.6016H3C2.05719 13.6016 1.58579 13.6016 1.29289 13.3087C1 13.0158 1 12.5444 1 11.6016V3.60156Z" stroke="#1E2D4D" stroke-opacity="0.6" stroke-width="1.5"/>
<path d="M14 7.60156C14 8.15385 13.5523 8.60156 13 8.60156C12.4477 8.60156 12 8.15385 12 7.60156C12 7.04928 12.4477 6.60156 13 6.60156C13.5523 6.60156 14 7.04928 14 7.60156Z" stroke="#1E2D4D" stroke-opacity="0.6" stroke-width="1.5"/>
</svg>
