<svg width="15" height="31" viewBox="0 0 15 31" fill="none" xmlns="http://www.w3.org/2000/svg">
<path d="M2.66667 15.4999L2.66667 9.83325M2.66667 15.4999C1.88426 15.4999 1.25 16.1342 1.25 16.9166C1.25 17.699 1.88426 18.3333 2.66667 18.3333M2.66667 15.4999C3.44907 15.4999 4.08333 16.1342 4.08333 16.9166C4.08333 17.699 3.44907 18.3333 2.66667 18.3333M12.5833 21.1666L12.5833 19.7499M2.66667 21.1666L2.66667 18.3333M12.5833 15.4999L12.5833 9.83325M7.625 11.9583V9.83325M7.625 11.9583C6.8426 11.9583 6.20833 12.5925 6.20833 13.3749C6.20833 14.1573 6.8426 14.7916 7.625 14.7916C8.4074 14.7916 9.04167 14.1573 9.04167 13.3749C9.04167 12.5925 8.4074 11.9583 7.625 11.9583ZM7.625 21.1666L7.625 15.4999M14 17.6249C14 18.4073 13.3657 19.0416 12.5833 19.0416C11.8009 19.0416 11.1667 18.4073 11.1667 17.6249C11.1667 16.8425 11.8009 16.2083 12.5833 16.2083C13.3657 16.2083 14 16.8425 14 17.6249Z" stroke="#1E2D4D" stroke-width="1.5" stroke-linecap="round"/>
</svg>
