<svg width="477" height="864" viewBox="0 0 477 864" fill="none" xmlns="http://www.w3.org/2000/svg">
<path d="M-2576 53.0062C-2576 23.7317 -2552.27 0 -2522.99 0H1099.98C1129.25 0 1152.98 23.7317 1152.98 53.0061V810.994C1152.98 840.268 1129.25 864 1099.98 864H-2522.99C-2552.27 864 -2576 840.268 -2576 810.994V53.0062Z" fill="#F2EFE8"/>
<g clip-path="url(#clip0_15850_6256)">
<mask id="mask0_15850_6256" style="mask-type:alpha" maskUnits="userSpaceOnUse" x="-2576" y="0" width="3729" height="1413">
<path d="M1152.98 0H-2576V1412.61H1152.98V0Z" fill="#F2EFE8"/>
</mask>
<g mask="url(#mask0_15850_6256)">
<path d="M-4009.82 800.379C-4009.82 777.833 -4005.82 766.673 -3989.99 747.228C-3907.24 645.625 -3790.83 561.788 -3678.91 488.176C-3475.09 354.134 -3256.74 272.192 -3005.31 248.708C-2713.25 221.428 -2459.12 268.879 -2189.81 369.002C-1939.71 461.983 -1702.77 577.417 -1460.44 685.123C-1233.64 785.925 -987.576 872.629 -730.456 869.2C-262.494 862.956 171.228 558.518 494.036 281.158C849.071 -23.8872 1114.08 -397.681 1388.86 -760.641" stroke="url(#paint0_linear_15850_6256)" stroke-width="530.061"/>
<path d="M297.591 1236.29V528.682C297.591 189.956 -75.9674 -16.5271 -365.477 159.796L-1427.79 807.085C-1607.56 918.447 -1717.3 1111.01 -1717.3 1322.13V2032.07C-1717.3 2370.79 -1343.74 2577.28 -1054.23 2400.95L8.08154 1753.66C190.192 1639.98 297.591 1447.42 297.591 1236.29Z" fill="url(#paint1_linear_15850_6256)"/>
</g>
</g>
<g clip-path="url(#clip1_15850_6256)">
<mask id="mask1_15850_6256" style="mask-type:alpha" maskUnits="userSpaceOnUse" x="-2576" y="0" width="3729" height="1413">
<path d="M1152.98 0H-2576V1412.61H1152.98V0Z" fill="#F2EFE8"/>
</mask>
<g mask="url(#mask1_15850_6256)">
<path d="M310.193 1023.7C83.2725 798.284 -364.836 663.719 -795.764 691.572C-1049.23 707.958 -1286.19 774.752 -1535.37 807.487C-1784.55 840.223 -2074.61 831.158 -2253.56 720.368C-2331.16 672.329 -2380.04 609.718 -2451.99 558.472C-2572.46 472.606 -2758.89 422.755 -2944.01 426.939C-3129.07 431.122 -3308.99 489.201 -3418.79 580.294V1428.51H310.193V1023.7Z" fill="url(#paint2_linear_15850_6256)"/>
<path d="M148.649 405.5H710.251C741.062 405.5 766.039 430.477 766.039 461.288V875.981C766.039 906.792 741.062 931.769 710.251 931.769H148.649C117.838 931.769 92.8611 906.792 92.8611 875.981V461.288C92.8611 430.477 117.838 405.5 148.649 405.5Z" fill="url(#paint3_linear_15850_6256)"/>
<path opacity="0.4" d="M583.812 703.957C583.812 619.227 515.118 550.539 430.394 550.539C345.665 550.539 276.977 619.227 276.977 703.957V872.251H583.812V703.957Z" fill="url(#paint4_linear_15850_6256)"/>
</g>
</g>
<defs>
<linearGradient id="paint0_linear_15850_6256" x1="2050.69" y1="-1117.11" x2="57.08" y2="323.335" gradientUnits="userSpaceOnUse">
<stop stop-color="#2E6DE5"/>
<stop offset="1" stop-color="#2E6DE5" stop-opacity="0"/>
</linearGradient>
<linearGradient id="paint1_linear_15850_6256" x1="-1792.42" y1="1038.7" x2="1217.92" y2="-128.537" gradientUnits="userSpaceOnUse">
<stop stop-color="#F2EFE8"/>
<stop offset="1" stop-color="#CBABDE"/>
</linearGradient>
<linearGradient id="paint2_linear_15850_6256" x1="-3521.27" y1="470.616" x2="56.5288" y2="1700.24" gradientUnits="userSpaceOnUse">
<stop stop-color="#3EA283"/>
<stop offset="1" stop-color="#F2EFE8"/>
</linearGradient>
<linearGradient id="paint3_linear_15850_6256" x1="671.681" y1="405.5" x2="211.644" y2="1126.45" gradientUnits="userSpaceOnUse">
<stop stop-color="#EF8451"/>
<stop offset="1" stop-color="#F2EFE8"/>
</linearGradient>
<linearGradient id="paint4_linear_15850_6256" x1="430.394" y1="550.539" x2="430.394" y2="872.251" gradientUnits="userSpaceOnUse">
<stop offset="0.0001" stop-color="#F2EFE8"/>
<stop offset="1" stop-color="#F2EFE8" stop-opacity="0"/>
</linearGradient>
<clipPath id="clip0_15850_6256">
<rect x="-2576" width="3728.98" height="864" rx="53.0061" fill="white"/>
</clipPath>
<clipPath id="clip1_15850_6256">
<rect x="-2576" width="3728.98" height="864" rx="53.0061" fill="white"/>
</clipPath>
</defs>
</svg>
