<svg width="11" height="11" viewBox="0 0 11 11" fill="none" xmlns="http://www.w3.org/2000/svg">
<path d="M10.0326 0.751373L10.0326 0.001373L10.7826 0.00137308L10.7826 0.751373L10.0326 0.751373ZM1.28218 10.5625C0.989284 10.8554 0.51441 10.8554 0.221517 10.5625C-0.0713767 10.2696 -0.0713763 9.79471 0.221517 9.50182L0.751847 10.0321L1.28218 10.5625ZM2.608 0.751373L2.608 0.001373H10.0326L10.0326 0.751373L10.0326 1.50137H2.608L2.608 0.751373ZM10.0326 0.751373L10.7826 0.751373L10.7826 8.17599L10.0326 8.17599L9.28262 8.17599L9.28262 0.751373L10.0326 0.751373ZM10.0326 0.751373L10.563 1.2817L1.28218 10.5625L0.751847 10.0321L0.221517 9.50182L9.50229 0.221043L10.0326 0.751373Z" fill="#1E2D4D"/>
</svg>
