<svg width="118" height="91" viewBox="0 0 118 91" fill="none" xmlns="http://www.w3.org/2000/svg">
<g opacity="0.05">
<path d="M34.4141 41.0807C34.4141 31.8098 34.4141 27.1743 37.2942 24.2942C40.1743 21.4141 44.8098 21.4141 54.0807 21.4141H63.9141C73.185 21.4141 77.8205 21.4141 80.7006 24.2942C83.5807 27.1743 83.5807 31.8098 83.5807 41.0807V50.9141C83.5807 60.185 83.5807 64.8205 80.7006 67.7006C77.8205 70.5807 73.185 70.5807 63.9141 70.5807H54.0807C44.8098 70.5807 40.1743 70.5807 37.2942 67.7006C34.4141 64.8205 34.4141 60.185 34.4141 50.9141V41.0807Z" stroke="#3EA283" stroke-width="9.2"/>
<path d="M49.1641 21.4141V6.66406" stroke="#3EA283" stroke-width="9.2" stroke-linecap="round"/>
<path d="M68.8359 21.4141V6.66406" stroke="#3EA283" stroke-width="9.2" stroke-linecap="round"/>
<path d="M83.5859 36.1641L98.3359 36.1641" stroke="#3EA283" stroke-width="9.2" stroke-linecap="round"/>
<path d="M83.5859 55.8359L98.3359 55.8359" stroke="#3EA283" stroke-width="9.2" stroke-linecap="round"/>
<path d="M49.1641 85.3359V70.5859" stroke="#3EA283" stroke-width="9.2" stroke-linecap="round"/>
<path d="M68.8359 85.3359V70.5859" stroke="#3EA283" stroke-width="9.2" stroke-linecap="round"/>
<path d="M19.6641 36.1641L34.4141 36.1641" stroke="#3EA283" stroke-width="9.2" stroke-linecap="round"/>
<path d="M19.6641 55.8359L34.4141 55.8359" stroke="#3EA283" stroke-width="9.2" stroke-linecap="round"/>
</g>
</svg>
