<svg width="17" height="17" viewBox="0 0 17 17" fill="none" xmlns="http://www.w3.org/2000/svg">
<path d="M4.14845 4.52194C4.37204 2.28599 6.25355 0.583252 8.50065 0.583252V0.583252C10.7478 0.583252 12.6293 2.28599 12.8529 4.52194L13.0798 6.79097C13.192 7.91312 13.5778 8.9906 14.2033 9.92894L14.8851 10.9515C15.3132 11.5938 15.5273 11.9149 15.5462 12.1783C15.5739 12.5629 15.3778 12.9292 15.0425 13.1196C14.8129 13.2499 14.4269 13.2499 13.655 13.2499H3.34629C2.57439 13.2499 2.18845 13.2499 1.95882 13.1196C1.62346 12.9292 1.42745 12.5629 1.45507 12.1783C1.47398 11.9149 1.68807 11.5938 2.11624 10.9515L2.79797 9.92894C3.42353 8.9906 3.80933 7.91312 3.92155 6.79097L4.14845 4.52194Z" fill="white"/>
<path d="M6.97127 15.3316C7.06148 15.4158 7.26026 15.4902 7.53678 15.5432C7.8133 15.5962 8.1521 15.625 8.50065 15.625C8.8492 15.625 9.188 15.5962 9.46452 15.5432C9.74104 15.4902 9.93982 15.4158 10.03 15.3316" stroke="white" stroke-width="2" stroke-linecap="round"/>
</svg>
