<svg width="32" height="32" viewBox="0 0 32 32" fill="none" xmlns="http://www.w3.org/2000/svg">
<path d="M5.70173 25.7118L4.70284 25.6646L5.70173 25.7118ZM26.2983 25.7118L27.2972 25.6646L26.2983 25.7118ZM24.7641 20.0264L25.6575 19.5772L24.7641 20.0264ZM7.23593 20.0264L8.12936 20.4756L7.23593 20.0264ZM28.6 0C28.0477 0 27.6 0.447715 27.6 1C27.6 1.55228 28.0477 2 28.6 2V1V0ZM30 3.4C30 3.95228 30.4477 4.4 31 4.4C31.5523 4.4 32 3.95228 32 3.4H31H30ZM30.6661 1.3339L29.959 2.041V2.04101L30.6661 1.3339ZM28.6 30C28.0477 30 27.6 30.4477 27.6 31C27.6 31.5523 28.0477 32 28.6 32V31V30ZM32 28.6C32 28.0477 31.5523 27.6 31 27.6C30.4477 27.6 30 28.0477 30 28.6H31H32ZM30.6661 30.6661L29.959 29.959V29.959L30.6661 30.6661ZM3.4 2C3.95228 2 4.4 1.55228 4.4 1C4.4 0.447715 3.95228 0 3.4 0V1V2ZM0 3.4C0 3.95228 0.447715 4.4 1 4.4C1.55228 4.4 2 3.95228 2 3.4H1H0ZM1.3339 1.3339L2.04101 2.04101L2.04101 2.041L1.3339 1.3339ZM3.4 32C3.95228 32 4.4 31.5523 4.4 31C4.4 30.4477 3.95228 30 3.4 30V31V32ZM2 28.6C2 28.0477 1.55228 27.6 1 27.6C0.447715 27.6 0 28.0477 0 28.6H1H2ZM1.3339 30.6661L2.04101 29.959H2.04101L1.3339 30.6661ZM21.5 10.5H20.5C20.5 12.9853 18.4853 15 16 15V16V17C19.5899 17 22.5 14.0899 22.5 10.5H21.5ZM16 16V15C13.5147 15 11.5 12.9853 11.5 10.5H10.5H9.5C9.5 14.0899 12.4101 17 16 17V16ZM10.5 10.5H11.5C11.5 8.01472 13.5147 6 16 6V5V4C12.4101 4 9.5 6.91015 9.5 10.5H10.5ZM16 5V6C18.4853 6 20.5 8.01472 20.5 10.5H21.5H22.5C22.5 6.91015 19.5899 4 16 4V5ZM10.7445 18.0625V19.0625H21.2555V18.0625V17.0625H10.7445V18.0625ZM24.7641 20.0264L23.8706 20.4756C24.5114 21.7499 25.1969 23.5925 25.2994 25.759L26.2983 25.7118L27.2972 25.6646C27.1777 23.1379 26.3821 21.0183 25.6575 19.5772L24.7641 20.0264ZM25.7125 26.3125V25.3125H6.2875V26.3125V27.3125H25.7125V26.3125ZM5.70173 25.7118L6.70061 25.759C6.80306 23.5925 7.48865 21.7499 8.12936 20.4756L7.23593 20.0264L6.3425 19.5772C5.61793 21.0183 4.82232 23.1379 4.70284 25.6646L5.70173 25.7118ZM6.2875 26.3125V25.3125C6.49741 25.3125 6.7133 25.4908 6.70061 25.759L5.70173 25.7118L4.70284 25.6646C4.65885 26.5949 5.41485 27.3125 6.2875 27.3125V26.3125ZM26.2983 25.7118L25.2994 25.759C25.2867 25.4908 25.5026 25.3125 25.7125 25.3125V26.3125V27.3125C26.5851 27.3125 27.3411 26.5949 27.2972 25.6646L26.2983 25.7118ZM21.2555 18.0625V19.0625C22.4359 19.0625 23.4262 19.5916 23.8706 20.4756L24.7641 20.0264L25.6575 19.5772C24.7919 17.8556 22.9914 17.0625 21.2555 17.0625V18.0625ZM10.7445 18.0625V17.0625C9.00858 17.0625 7.20805 17.8556 6.3425 19.5772L7.23593 20.0264L8.12936 20.4756C8.57381 19.5916 9.5641 19.0625 10.7445 19.0625V18.0625ZM28.6 1V2H28.72V1V0H28.6V1ZM31 3.28H30V3.4H31H32V3.28H31ZM28.72 1V2C29.2857 2 29.6093 2.00212 29.8376 2.03282C30.0372 2.05965 30.0088 2.09083 29.959 2.041L30.6661 1.3339L31.3732 0.626792C30.9895 0.243073 30.5255 0.1073 30.1041 0.0506545C29.7116 -0.00212371 29.2291 0 28.72 0V1ZM31 3.28H32C32 2.77087 32.0021 2.28842 31.9493 1.89586C31.8927 1.47454 31.7569 1.01051 31.3732 0.626791L30.6661 1.3339L29.959 2.04101C29.9092 1.99118 29.9404 1.96281 29.9672 2.16236C29.9979 2.39067 30 2.71433 30 3.28H31ZM28.6 31V32H28.72V31V30H28.6V31ZM31 28.72H32V28.6H31H30V28.72H31ZM28.72 31V32C29.2291 32 29.7116 32.0021 30.1041 31.9493C30.5255 31.8927 30.9895 31.7569 31.3732 31.3732L30.6661 30.6661L29.959 29.959C30.0088 29.9092 30.0372 29.9404 29.8376 29.9672C29.6093 29.9979 29.2857 30 28.72 30V31ZM31 28.72H30C30 29.2857 29.9979 29.6093 29.9672 29.8376C29.9404 30.0372 29.9092 30.0088 29.959 29.959L30.6661 30.6661L31.3732 31.3732C31.7569 30.9895 31.8927 30.5255 31.9493 30.1041C32.0021 29.7116 32 29.2291 32 28.72H31ZM3.4 1V0H3.28V1V2H3.4V1ZM1 3.28H0V3.4H1H2V3.28H1ZM3.28 1V0C2.77087 0 2.28842 -0.00212371 1.89586 0.0506545C1.47454 0.1073 1.01051 0.243073 0.626791 0.626792L1.3339 1.3339L2.04101 2.041C1.99119 2.09082 1.96281 2.05965 2.16236 2.03282C2.39067 2.00212 2.71433 2 3.28 2V1ZM1 3.28H2C2 2.71433 2.00212 2.39067 2.03282 2.16236C2.05965 1.96281 2.09082 1.99119 2.04101 2.04101L1.3339 1.3339L0.626792 0.626791C0.243073 1.01051 0.1073 1.47454 0.0506545 1.89586C-0.00212371 2.28842 0 2.77087 0 3.28H1ZM3.4 31V30H3.28V31V32H3.4V31ZM1 28.72H2V28.6H1H0V28.72H1ZM3.28 31V30C2.71433 30 2.39067 29.9979 2.16236 29.9672C1.96281 29.9404 1.99118 29.9092 2.04101 29.959L1.3339 30.6661L0.626791 31.3732C1.01051 31.7569 1.47454 31.8927 1.89586 31.9493C2.28842 32.0021 2.77087 32 3.28 32V31ZM1 28.72H0C0 29.2291 -0.00212371 29.7116 0.0506545 30.1041C0.1073 30.5255 0.243073 30.9895 0.626792 31.3732L1.3339 30.6661L2.04101 29.959C2.09083 30.0088 2.05965 30.0372 2.03282 29.8376C2.00212 29.6093 2 29.2857 2 28.72H1Z" fill="#D49311"/>
</svg>
