<svg width="15" height="20" viewBox="0 0 15 20" fill="none" xmlns="http://www.w3.org/2000/svg">
<path d="M4 9.85156C3.58579 9.85156 3.25 10.1873 3.25 10.6016C3.25 11.0158 3.58579 11.3516 4 11.3516V9.85156ZM11 11.3516C11.4142 11.3516 11.75 11.0158 11.75 10.6016C11.75 10.1873 11.4142 9.85156 11 9.85156V11.3516ZM4 12.8516C3.58579 12.8516 3.25 13.1873 3.25 13.6016C3.25 14.0158 3.58579 14.3516 4 14.3516V12.8516ZM8 14.3516C8.41421 14.3516 8.75 14.0158 8.75 13.6016C8.75 13.1873 8.41421 12.8516 8 12.8516V14.3516ZM13.779 6.43914L14.4184 6.04726L13.779 6.43914ZM13.9586 6.87271L14.6878 6.69763L13.9586 6.87271ZM1.81901 18.4381L1.47852 19.1063L1.81901 18.4381ZM1.16349 17.7825L0.495235 18.123L1.16349 17.7825ZM13.181 18.4381L13.5215 19.1063L13.181 18.4381ZM13.8365 17.7825L14.5048 18.123L13.8365 17.7825ZM8.72885 1.64301L8.90393 0.91373L8.72885 1.64301ZM9.16243 1.8226L9.5543 1.18312V1.18312L9.16243 1.8226ZM1.81901 1.76505L1.47852 1.0968L1.81901 1.76505ZM1.16349 2.42058L0.495235 2.08008L1.16349 2.42058ZM8.16349 6.78255L7.49524 7.12304V7.12304L8.16349 6.78255ZM8.81901 7.43807L9.15951 6.76982V6.76982L8.81901 7.43807ZM4 11.3516L11 11.3516V9.85156L4 9.85156V11.3516ZM4 14.3516H8V12.8516H4V14.3516ZM3.4 2.35156H8.00589V0.851562H3.4V2.35156ZM11.6 17.8516H3.4V19.3516H11.6V17.8516ZM1.75 16.2016V4.00156H0.25V16.2016H1.75ZM9.17261 2.83484L12.7667 6.42895L13.8274 5.36829L10.2333 1.77418L9.17261 2.83484ZM13.25 7.59567V16.2016H14.75V7.59567H13.25ZM12.7667 6.42895C13.0514 6.71362 13.1039 6.77293 13.1395 6.83101L14.4184 6.04726C14.2685 5.80259 14.0616 5.60247 13.8274 5.36829L12.7667 6.42895ZM14.75 7.59567C14.75 7.26449 14.7548 6.97666 14.6878 6.69763L13.2293 7.0478C13.2452 7.11404 13.25 7.19309 13.25 7.59567H14.75ZM13.1395 6.83101C13.1806 6.89811 13.2109 6.97127 13.2293 7.0478L14.6878 6.69763C14.6327 6.46805 14.5418 6.24857 14.4184 6.04726L13.1395 6.83101ZM3.4 17.8516C2.96758 17.8516 2.68838 17.851 2.47588 17.8336C2.27213 17.817 2.19659 17.7887 2.15951 17.7698L1.47852 19.1063C1.76231 19.2509 2.05722 19.3044 2.35373 19.3286C2.64148 19.3521 2.99234 19.3516 3.4 19.3516V17.8516ZM0.25 16.2016C0.25 16.6092 0.249417 16.9601 0.272927 17.2478C0.297153 17.5443 0.35064 17.8393 0.495235 18.123L1.83175 17.4421C1.81285 17.405 1.78459 17.3294 1.76795 17.1257C1.75058 16.9132 1.75 16.634 1.75 16.2016H0.25ZM2.15951 17.7698C2.01838 17.6979 1.90365 17.5832 1.83175 17.4421L0.495235 18.123C0.710951 18.5464 1.05516 18.8906 1.47852 19.1063L2.15951 17.7698ZM11.6 19.3516C12.0077 19.3516 12.3585 19.3521 12.6463 19.3286C12.9428 19.3044 13.2377 19.2509 13.5215 19.1063L12.8405 17.7698C12.8034 17.7887 12.7279 17.817 12.5241 17.8336C12.3116 17.851 12.0324 17.8516 11.6 17.8516V19.3516ZM13.25 16.2016C13.25 16.634 13.2494 16.9132 13.2321 17.1257C13.2154 17.3294 13.1871 17.405 13.1683 17.4421L14.5048 18.123C14.6494 17.8393 14.7028 17.5443 14.7271 17.2478C14.7506 16.9601 14.75 16.6092 14.75 16.2016H13.25ZM13.5215 19.1063C13.9448 18.8906 14.289 18.5464 14.5048 18.123L13.1683 17.4421C13.0964 17.5832 12.9816 17.6979 12.8405 17.7698L13.5215 19.1063ZM8.00589 2.35156C8.40847 2.35156 8.48752 2.35638 8.55376 2.37229L8.90393 0.91373C8.62491 0.846742 8.33707 0.851562 8.00589 0.851562V2.35156ZM10.2333 1.77418C9.99909 1.53999 9.79897 1.33305 9.5543 1.18312L8.77055 2.46208C8.82864 2.49768 8.88794 2.55017 9.17261 2.83484L10.2333 1.77418ZM8.55376 2.37229C8.63029 2.39066 8.70345 2.42096 8.77055 2.46208L9.5543 1.18312C9.35299 1.05976 9.13351 0.968848 8.90393 0.91373L8.55376 2.37229ZM3.4 0.851562C2.99234 0.851562 2.64148 0.850979 2.35373 0.87449C2.05722 0.898715 1.76231 0.952202 1.47852 1.0968L2.15951 2.43331C2.19659 2.41441 2.27213 2.38615 2.47588 2.36951C2.68838 2.35215 2.96758 2.35156 3.4 2.35156V0.851562ZM1.75 4.00156C1.75 3.56915 1.75058 3.28994 1.76795 3.07744C1.78459 2.87369 1.81285 2.79815 1.83175 2.76107L0.495235 2.08008C0.35064 2.36387 0.297153 2.65878 0.272927 2.95529C0.249417 3.24304 0.25 3.5939 0.25 4.00156H1.75ZM1.47852 1.0968C1.05516 1.31251 0.71095 1.65672 0.495235 2.08008L1.83175 2.76107C1.90365 2.61995 2.01839 2.50521 2.15951 2.43331L1.47852 1.0968ZM7.25 1.60156V5.20156H8.75V1.60156H7.25ZM10.4 8.35156H14V6.85156H10.4V8.35156ZM7.25 5.20156C7.25 5.60923 7.24942 5.96008 7.27293 6.24783C7.29715 6.54434 7.35064 6.83926 7.49524 7.12304L8.83175 6.44206C8.81285 6.40497 8.78459 6.32943 8.76795 6.12569C8.75058 5.91318 8.75 5.63398 8.75 5.20156H7.25ZM10.4 6.85156C9.96758 6.85156 9.68838 6.85098 9.47588 6.83362C9.27213 6.81697 9.19659 6.78871 9.15951 6.76982L8.47852 8.10633C8.76231 8.25092 9.05722 8.30441 9.35373 8.32864C9.64148 8.35215 9.99234 8.35156 10.4 8.35156V6.85156ZM7.49524 7.12304C7.71095 7.54641 8.05516 7.89061 8.47852 8.10633L9.15951 6.76982C9.01839 6.69791 8.90365 6.58318 8.83175 6.44206L7.49524 7.12304Z" fill="#1E2D4D99" fill-opacity="0.6"/>
</svg>
