<svg width="17" height="14" viewBox="0 0 17 14" fill="none" xmlns="http://www.w3.org/2000/svg">
<path d="M1.0625 6.53125L0.53217 7.06158L0.00183988 6.53125L0.53217 6.00092L1.0625 6.53125ZM16.0625 5.78125C16.4767 5.78125 16.8125 6.11704 16.8125 6.53125C16.8125 6.94546 16.4767 7.28125 16.0625 7.28125V6.53125V5.78125ZM7.0625 12.5312L6.53217 13.0616L0.53217 7.06158L1.0625 6.53125L1.59283 6.00092L7.59283 12.0009L7.0625 12.5312ZM1.0625 6.53125L0.53217 6.00092L6.53217 0.000920296L7.0625 0.53125L7.59283 1.06158L1.59283 7.06158L1.0625 6.53125ZM1.0625 6.53125L1.0625 5.78125L16.0625 5.78125V6.53125V7.28125L1.0625 7.28125V6.53125Z" fill="#1E2D4D"/>
</svg>
