<svg width="17" height="14" viewBox="0 0 17 14" fill="none" xmlns="http://www.w3.org/2000/svg">
<path d="M15.75 6.53125L16.2803 6.00092L16.8107 6.53125L16.2803 7.06158L15.75 6.53125ZM0.75 7.28125C0.335787 7.28125 0 6.94546 0 6.53125C0 6.11704 0.335787 5.78125 0.75 5.78125V6.53125V7.28125ZM9.75 0.53125L10.2803 0.000919938L16.2803 6.00092L15.75 6.53125L15.2197 7.06158L9.21967 1.06158L9.75 0.53125ZM15.75 6.53125L16.2803 7.06158L10.2803 13.0616L9.75 12.5312L9.21967 12.0009L15.2197 6.00092L15.75 6.53125ZM15.75 6.53125V7.28125H0.75V6.53125V5.78125H15.75V6.53125Z" fill="#1E2D4D"/>
</svg>
