<svg width="96" height="91" viewBox="0 0 96 91" fill="none" xmlns="http://www.w3.org/2000/svg">
<path opacity="0.05" d="M17.7917 74.488L13.7962 74.299L17.7917 74.488ZM78.2083 74.488L82.2038 74.299L78.2083 74.488ZM73.7079 57.8107L77.2817 56.0139L73.7079 57.8107ZM22.2921 57.8107L25.8658 59.6075L22.2921 57.8107ZM84.96 -2C82.7509 -2 80.96 -0.209139 80.96 2C80.96 4.20914 82.7509 6 84.96 6V2V-2ZM88 9.04C88 11.2491 89.7909 13.04 92 13.04C94.2091 13.04 96 11.2491 96 9.04H92H88ZM91.0206 2.97943L88.1921 5.80786V5.80786L91.0206 2.97943ZM84.96 86C82.7509 86 80.96 87.7909 80.96 90C80.96 92.2091 82.7509 94 84.96 94V90V86ZM96 82.96C96 80.7509 94.2091 78.96 92 78.96C89.7909 78.96 88 80.7509 88 82.96H92H96ZM91.0206 89.0206L88.1921 86.1921V86.1921L91.0206 89.0206ZM11.04 6C13.2491 6 15.04 4.20914 15.04 2C15.04 -0.209139 13.2491 -2 11.04 -2V2V6ZM0 9.04C0 11.2491 1.79086 13.04 4 13.04C6.20914 13.04 8 11.2491 8 9.04H4H0ZM4.97944 2.97943L7.80786 5.80786L7.80786 5.80786L4.97944 2.97943ZM11.04 94C13.2491 94 15.04 92.2091 15.04 90C15.04 87.7909 13.2491 86 11.04 86V90V94ZM8 82.96C8 80.7509 6.20914 78.96 4 78.96C1.79086 78.96 0 80.7509 0 82.96H4H8ZM4.97944 89.0206L7.80786 86.1921H7.80786L4.97944 89.0206ZM64.1333 29.8667H60.1333C60.1333 36.5677 54.7011 42 48 42V46V50C59.1193 50 68.1333 40.986 68.1333 29.8667H64.1333ZM48 46V42C41.2989 42 35.8667 36.5677 35.8667 29.8667H31.8667H27.8667C27.8667 40.986 36.8807 50 48 50V46ZM31.8667 29.8667H35.8667C35.8667 23.1656 41.2989 17.7333 48 17.7333V13.7333V9.73333C36.8807 9.73333 27.8667 18.7473 27.8667 29.8667H31.8667ZM48 13.7333V17.7333C54.7011 17.7333 60.1333 23.1656 60.1333 29.8667H64.1333H68.1333C68.1333 18.7473 59.1193 9.73333 48 9.73333V13.7333ZM32.5839 52.05V56.05H63.4161V52.05V48.05H32.5839V52.05ZM73.7079 57.8107L70.1342 59.6075C71.9689 63.2567 73.9213 68.5137 74.2127 74.6769L78.2083 74.488L82.2038 74.299C81.8442 66.6955 79.4518 60.3302 77.2817 56.0139L73.7079 57.8107ZM76.49 76.25V72.25H19.51V76.25V80.25H76.49V76.25ZM17.7917 74.488L21.7873 74.6769C22.0787 68.5137 24.0311 63.2567 25.8658 59.6075L22.2921 57.8107L18.7183 56.0139C16.5482 60.3302 14.1558 66.6955 13.7962 74.299L17.7917 74.488ZM19.51 76.25V72.25C20.7031 72.25 21.8547 73.2507 21.7873 74.6769L17.7917 74.488L13.7962 74.299C13.6369 77.6671 16.3729 80.25 19.51 80.25V76.25ZM78.2083 74.488L74.2127 74.6769C74.1453 73.2507 75.2969 72.25 76.49 72.25V76.25V80.25C79.6271 80.25 82.3631 77.6671 82.2038 74.299L78.2083 74.488ZM63.4161 52.05V56.05C66.5824 56.05 69.0551 57.4611 70.1342 59.6075L73.7079 57.8107L77.2817 56.0139C74.5181 50.5173 68.8044 48.05 63.4161 48.05V52.05ZM32.5839 52.05V48.05C27.1955 48.05 21.4819 50.5173 18.7183 56.0139L22.2921 57.8107L25.8658 59.6075C26.9449 57.4611 29.4176 56.05 32.5839 56.05V52.05ZM84.96 2V6H85.312V2V-2H84.96V2ZM92 8.688H88V9.04H92H96V8.688H92ZM85.312 2V6C86.1151 6 86.7498 6.00026 87.2954 6.01403C87.843 6.02785 88.2016 6.05359 88.4483 6.08676C88.9154 6.14956 88.5695 6.18522 88.1921 5.80786L91.0206 2.97943L93.849 0.151008C92.4922 -1.20579 90.8684 -1.65984 89.5143 -1.8419C88.2752 -2.00849 86.7753 -2 85.312 -2V2ZM92 8.688H96C96 7.22471 96.0085 5.72484 95.8419 4.48574C95.6599 3.13157 95.2058 1.50781 93.849 0.151008L91.0206 2.97943L88.1921 5.80786C87.8148 5.4305 87.8504 5.08464 87.9132 5.55171C87.9464 5.79839 87.9722 6.15698 87.986 6.70461C87.9997 7.25022 88 7.88494 88 8.688H92ZM84.96 90V94H85.312V90V86H84.96V90ZM92 83.312H96V82.96H92H88V83.312H92ZM85.312 90V94C86.7753 94 88.2752 94.0085 89.5143 93.8419C90.8684 93.6599 92.4922 93.2058 93.849 91.849L91.0206 89.0206L88.1921 86.1921C88.5695 85.8148 88.9154 85.8504 88.4483 85.9132C88.2016 85.9464 87.843 85.9722 87.2954 85.986C86.7498 85.9997 86.1151 86 85.312 86V90ZM92 83.312H88C88 84.1151 87.9997 84.7498 87.986 85.2954C87.9722 85.843 87.9464 86.2016 87.9132 86.4483C87.8504 86.9154 87.8148 86.5695 88.1921 86.1921L91.0206 89.0206L93.849 91.849C95.2058 90.4922 95.6599 88.8684 95.8419 87.5143C96.0085 86.2752 96 84.7753 96 83.312H92ZM11.04 2V-2H10.688V2V6H11.04V2ZM4 8.688H0V9.04H4H8V8.688H4ZM10.688 2V-2C9.2247 -2 7.72484 -2.00849 6.48573 -1.8419C5.13156 -1.65984 3.5078 -1.20579 2.15101 0.151008L4.97944 2.97943L7.80786 5.80786C7.4305 6.18522 7.08465 6.14956 7.55171 6.08676C7.7984 6.05359 8.15698 6.02785 8.70461 6.01403C9.25023 6.00026 9.88494 6 10.688 6V2ZM4 8.688H8C8 7.88494 8.00026 7.25023 8.01403 6.70461C8.02785 6.15698 8.05359 5.7984 8.08676 5.55171C8.14956 5.08465 8.18522 5.4305 7.80786 5.80786L4.97944 2.97943L2.15101 0.151008C0.794214 1.5078 0.340162 3.13156 0.158098 4.48573C-0.00849485 5.72484 0 7.2247 0 8.688H4ZM11.04 90V86H10.688V90V94H11.04V90ZM4 83.312H8V82.96H4H0V83.312H4ZM10.688 90V86C9.88494 86 9.25022 85.9997 8.70461 85.986C8.15698 85.9722 7.79839 85.9464 7.55171 85.9132C7.08464 85.8504 7.4305 85.8148 7.80786 86.1921L4.97944 89.0206L2.15101 91.849C3.50781 93.2058 5.13157 93.6599 6.48574 93.8419C7.72484 94.0085 9.22471 94 10.688 94V90ZM4 83.312H0C0 84.7753 -0.00849485 86.2752 0.158098 87.5143C0.340162 88.8684 0.794214 90.4922 2.15101 91.849L4.97944 89.0206L7.80786 86.1921C8.18522 86.5695 8.14956 86.9154 8.08676 86.4483C8.05359 86.2016 8.02785 85.843 8.01403 85.2954C8.00026 84.7498 8 84.1151 8 83.312H4Z" fill="#9F61C2"/>
</svg>
