<svg width="20" height="20" viewBox="0 0 20 20" fill="none" xmlns="http://www.w3.org/2000/svg">
<path d="M5.88161 9.60156L5.88161 5.60156C5.88161 3.39242 7.67247 1.60156 9.88161 1.60156C12.0907 1.60156 13.8816 3.39242 13.8816 5.60156V9.60156M3.05521 18.6016H16.708C17.7251 18.6016 18.2336 18.6016 18.5307 18.2787C18.8278 17.9558 18.7856 17.449 18.7011 16.4355L18.1873 10.2694C18.0422 8.52848 17.9696 7.65803 17.3956 7.1298C16.8215 6.60156 15.948 6.60156 14.2011 6.60156H5.56214C3.81521 6.60156 2.94174 6.60156 2.36765 7.1298C1.79357 7.65803 1.72103 8.52848 1.57596 10.2694L1.06211 16.4355C0.977653 17.449 0.935422 17.9558 1.23252 18.2787C1.52963 18.6016 2.03815 18.6016 3.05521 18.6016Z" stroke="#1E2D4D" stroke-opacity="0.6" stroke-width="1.5" stroke-linecap="round"/>
</svg>
